<svg width="13" height="12" viewBox="0 0 13 12" fill="none" xmlns="http://www.w3.org/2000/svg">
<path d="M12.6673 5.14972L8.07767 0.348116C7.63401 -0.116039 6.89968 -0.116039 6.45602 0.348116C6.01236 0.812271 6.01236 1.58053 6.45602 2.04468L9.08738 4.7976H1.1474C0.520153 4.7976 0 5.34178 0 5.998C0 6.65422 0.520153 7.1984 1.1474 7.1984H9.08738L6.45602 9.95132C6.01236 10.4155 6.01236 11.1837 6.45602 11.6479C6.6855 11.888 6.97617 12 7.26684 12C7.55752 12 7.84819 11.888 8.07767 11.6479L12.6673 6.84628C13.1109 6.38213 13.1109 5.61387 12.6673 5.14972Z" fill="white"/>
</svg>
