<svg width="28" height="28" viewBox="0 0 28 28" fill="none" xmlns="http://www.w3.org/2000/svg">
<path d="M21.1719 8.92187L15.5469 14.5469L21.125 20.125C21.5938 20.5469 21.5938 21.25 21.125 21.6719C20.7031 22.1406 20 22.1406 19.5781 21.6719L13.9531 16.0938L8.375 21.6719C7.95313 22.1406 7.25 22.1406 6.82813 21.6719C6.35938 21.25 6.35938 20.5469 6.82813 20.0781L12.4063 14.5L6.82813 8.92188C6.35938 8.5 6.35938 7.79688 6.82813 7.32812C7.25 6.90625 7.95312 6.90625 8.42188 7.32812L14 12.9531L19.5781 7.375C20 6.90625 20.7031 6.90625 21.1719 7.375C21.5938 7.79687 21.5938 8.5 21.1719 8.92187Z" fill="#0F0F0F"/>
<path d="M21.1719 8.92187L15.5469 14.5469L21.125 20.125C21.5938 20.5469 21.5938 21.25 21.125 21.6719C20.7031 22.1406 20 22.1406 19.5781 21.6719L13.9531 16.0938L8.375 21.6719C7.95313 22.1406 7.25 22.1406 6.82813 21.6719C6.35938 21.25 6.35938 20.5469 6.82813 20.0781L12.4063 14.5L6.82813 8.92188C6.35938 8.5 6.35938 7.79688 6.82813 7.32812C7.25 6.90625 7.95312 6.90625 8.42188 7.32812L14 12.9531L19.5781 7.375C20 6.90625 20.7031 6.90625 21.1719 7.375C21.5938 7.79687 21.5938 8.5 21.1719 8.92187Z" fill="black" fill-opacity="0.2"/>
</svg>
