<svg width="182" height="150" viewBox="0 0 182 150" fill="none" xmlns="http://www.w3.org/2000/svg">
<path d="M6.41833 69.0801V70.6163" stroke="#D2D8DF" stroke-width="2.921" stroke-linecap="round"/>
<path d="M2.96863 69.9126L4.22391 71.2048" stroke="#D2D8DF" stroke-width="2.921" stroke-linecap="round"/>
<path d="M1.5 73.3525H3.27496" stroke="#D2D8DF" stroke-width="2.921" stroke-linecap="round"/>
<path d="M2.82544 76.8532L4.08073 75.561" stroke="#D2D8DF" stroke-width="2.921" stroke-linecap="round"/>
<path d="M6.41833 77.2735V75.7373" stroke="#D2D8DF" stroke-width="2.921" stroke-linecap="round"/>
<path d="M8.97798 76.2492L7.95386 75.2251" stroke="#D2D8DF" stroke-width="2.921" stroke-linecap="round"/>
<path d="M11.0273 73.689H9.49109" stroke="#D2D8DF" stroke-width="2.921" stroke-linecap="round"/>
<path d="M10.0028 70.1045L8.97864 71.1286" stroke="#D2D8DF" stroke-width="2.921" stroke-linecap="round"/>
<path d="M88.8608 2V3.02413" stroke="#D2D8DF" stroke-width="2.921" stroke-linecap="round"/>
<path d="M85.7881 5.07227H86.8122" stroke="#D2D8DF" stroke-width="2.921" stroke-linecap="round"/>
<path d="M88.8608 8.14473V7.12061" stroke="#D2D8DF" stroke-width="2.921" stroke-linecap="round"/>
<path d="M91.4204 5.07227H90.3962" stroke="#D2D8DF" stroke-width="2.921" stroke-linecap="round"/>
<path d="M29.4607 45.0132V46.5494" stroke="#D2D8DF" stroke-width="2.921" stroke-linecap="round"/>
<path d="M24.8525 49.6221H26.3887" stroke="#D2D8DF" stroke-width="2.921" stroke-linecap="round"/>
<path d="M29.4607 53.7183V52.1821" stroke="#D2D8DF" stroke-width="2.921" stroke-linecap="round"/>
<path d="M33.558 49.6221H32.0219" stroke="#D2D8DF" stroke-width="2.921" stroke-linecap="round"/>
<path d="M139.685 100.848C140.908 100.848 141.901 101.841 141.901 103.065C141.901 104.289 140.908 105.282 139.685 105.282C138.461 105.282 137.468 104.289 137.468 103.065" stroke="#D2D8DF" stroke-width="2.921" stroke-linecap="round"/>
<path fill-rule="evenodd" clip-rule="evenodd" d="M149.828 80.7367C151.144 80.3262 153.161 78.7169 153.628 76.9854C154.052 78.516 155.827 80.3262 157.428 80.4632C155.625 81.1015 153.902 82.9978 153.628 84.4875C153.442 82.9691 151.058 80.958 149.828 80.7367Z" fill="#EBECEE"/>
<path fill-rule="evenodd" clip-rule="evenodd" d="M14.7509 100.165C15.409 99.9602 16.4171 99.1558 16.6506 98.29C16.8623 99.0549 17.7496 99.9602 18.5503 100.029C17.6491 100.348 16.7875 101.296 16.6506 102.041C16.5576 101.282 15.3655 100.276 14.7509 100.165Z" fill="#EBECEE"/>
<path fill-rule="evenodd" clip-rule="evenodd" d="M26.9655 28.9333C26.9655 29.8829 26.196 30.6522 25.247 30.6522C24.2976 30.6522 23.5286 29.8829 23.5286 28.9333C23.5286 27.984 24.2976 27.2144 25.247 27.2144C26.196 27.2144 26.9655 27.984 26.9655 28.9333Z" fill="#D1D8DF"/>
<path fill-rule="evenodd" clip-rule="evenodd" d="M141.716 33.5487C141.716 35.1354 140.429 36.4217 138.843 36.4217C137.257 36.4217 135.971 35.1354 135.971 33.5487C135.971 31.962 137.257 30.6758 138.843 30.6758C140.429 30.6758 141.716 31.962 141.716 33.5487Z" fill="#EBECEE"/>
<path fill-rule="evenodd" clip-rule="evenodd" d="M181.5 25.7648C181.5 27.0237 180.48 28.0438 179.222 28.0438C177.963 28.0438 176.944 27.0237 176.944 25.7648C176.944 24.506 177.963 23.4858 179.222 23.4858C180.48 23.4858 181.5 24.506 181.5 25.7648Z" fill="#EBECEE"/>
<path fill-rule="evenodd" clip-rule="evenodd" d="M59.0812 132.201C59.0812 132.995 58.4382 133.638 57.6449 133.638C56.8519 133.638 56.209 132.995 56.209 132.201C56.209 131.408 56.8519 130.765 57.6449 130.765C58.4382 130.765 59.0812 131.408 59.0812 132.201Z" stroke="#D2D8DF" stroke-width="2.921" stroke-linecap="round"/>
<path fill-rule="evenodd" clip-rule="evenodd" d="M58.2265 17.8903C58.2265 18.84 57.457 19.6092 56.508 19.6092C55.559 19.6092 54.7896 18.84 54.7896 17.8903C54.7896 16.941 55.559 16.1714 56.508 16.1714C57.457 16.1714 58.2265 16.941 58.2265 17.8903Z" stroke="#D2D8DF" stroke-width="2.921" stroke-linecap="round"/>
<path fill-rule="evenodd" clip-rule="evenodd" d="M102.061 148.11C100.963 148.528 99.7344 147.976 99.3166 146.878C98.8989 145.78 99.4501 144.55 100.549 144.133C101.646 143.715 102.875 144.266 103.293 145.365C103.711 146.463 103.16 147.692 102.061 148.11Z" stroke="#D2D8DF" stroke-width="2.921" stroke-linecap="round"/>
<g clip-path="url(#clip0_1826_15703)">
<g filter="url(#filter0_d_1826_15703)">
<path d="M115.667 71.0002C115.667 85.7268 103.727 97.6668 89 97.6668C74.2734 97.6668 62.3334 85.7268 62.3334 71.0002C62.3334 56.2735 74.2734 44.3335 89 44.3335C103.727 44.3335 115.667 56.2735 115.667 71.0002Z" fill="url(#paint0_linear_1826_15703)"/>
</g>
<path d="M115.581 44.8304L82.5443 79.1123L87.9679 84.3388L121.004 50.0569L115.581 44.8304Z" fill="#E0E2EE"/>
<path d="M108.195 52.4893L82.5439 79.1146L87.9666 84.3399L112.667 58.7026C111.477 56.4186 109.967 54.3266 108.195 52.4893Z" fill="#E0E2EE"/>
<path d="M76.9653 63.3573L71.751 68.7925L87.97 84.3525L93.1844 78.9173L76.9653 63.3573Z" fill="#E0E2EE"/>
</g>
<defs>
<filter id="filter0_d_1826_15703" x="58.3334" y="44.3335" width="61.3334" height="61.3335" filterUnits="userSpaceOnUse" color-interpolation-filters="sRGB">
<feFlood flood-opacity="0" result="BackgroundImageFix"/>
<feColorMatrix in="SourceAlpha" type="matrix" values="0 0 0 0 0 0 0 0 0 0 0 0 0 0 0 0 0 0 127 0" result="hardAlpha"/>
<feOffset dy="4"/>
<feGaussianBlur stdDeviation="2"/>
<feComposite in2="hardAlpha" operator="out"/>
<feColorMatrix type="matrix" values="0 0 0 0 0 0 0 0 0 0 0 0 0 0 0 0 0 0 0.25 0"/>
<feBlend mode="normal" in2="BackgroundImageFix" result="effect1_dropShadow_1826_15703"/>
<feBlend mode="normal" in="SourceGraphic" in2="effect1_dropShadow_1826_15703" result="shape"/>
</filter>
<linearGradient id="paint0_linear_1826_15703" x1="89" y1="44.3335" x2="89" y2="97.6668" gradientUnits="userSpaceOnUse">
<stop stop-color="#17573C"/>
<stop offset="1" stop-color="#32BD82"/>
</linearGradient>
<clipPath id="clip0_1826_15703">
<rect width="64" height="64" fill="white" transform="translate(57 39)"/>
</clipPath>
</defs>
</svg>
