<svg width="28" height="28" viewBox="0 0 28 28" fill="none" xmlns="http://www.w3.org/2000/svg">
<path d="M14 26C9.6875 26 5.75 23.75 3.59375 20C1.4375 16.2969 1.4375 11.75 3.59375 8C5.75 4.29688 9.6875 2 14 2C18.2656 2 22.2031 4.29687 24.3594 8C26.5156 11.75 26.5156 16.2969 24.3594 20C22.2031 23.75 18.2656 26 14 26ZM12.125 17.75C11.4688 17.75 11 18.2656 11 18.875C11 19.5312 11.4688 20 12.125 20L15.875 20C16.4844 20 17 19.5312 17 18.875C17 18.2656 16.4844 17.75 15.875 17.75H15.5V13.625C15.5 13.0156 14.9844 12.5 14.375 12.5H12.125C11.4688 12.5 11 13.0156 11 13.625C11 14.2812 11.4688 14.75 12.125 14.75H13.25V17.75H12.125ZM14 8C13.1563 8 12.5 8.70312 12.5 9.5C12.5 10.3437 13.1563 11 14 11C14.7969 11 15.5 10.3437 15.5 9.5C15.5 8.70312 14.7969 8 14 8Z" fill="#FCBF4A"/>
</svg>
